<?xml version="1.0" encoding="UTF-8"?>
<svg xmlns:dc="http://purl.org/dc/elements/1.1/" xmlns:rdf="http://www.w3.org/1999/02/22-rdf-syntax-ns#" xmlns="http://www.w3.org/2000/svg" xmlns:xlink="http://www.w3.org/1999/xlink" version="1.1" id="Слой_1" x="0px" y="0px" viewBox="0 0 137.8 134.7" style="enable-background:new 0 0 137.8 134.7;" xml:space="preserve">
<style type="text/css">
	.st0{fill:url(#SVGID_1_);}
	.st1{fill:url(#SVGID_2_);}
</style>
<g>
	
		<linearGradient id="SVGID_1_" gradientUnits="userSpaceOnUse" x1="409.0538" y1="-184.2044" x2="518.1038" y2="-278.0044" gradientTransform="matrix(0.5625 0 0 -0.568 -219.5323 -90.2734)">
		<stop offset="0" style="stop-color:#5A9FD4"></stop>
		<stop offset="1" style="stop-color:#306998"></stop>
	</linearGradient>
	<path class="st0" d="M68.2,11.2c-4.6,0-9,0.4-12.8,1.1C44,14.3,42,18.4,42,26.2v10.2h26.8v3.4H42H31.9c-7.8,0-14.6,4.7-16.8,13.6   c-2.5,10.2-2.6,16.6,0,27.2c1.9,7.9,6.5,13.6,14.3,13.6h9.2V82c0-8.8,7.7-16.7,16.7-16.7h26.8c7.5,0,13.4-6.1,13.4-13.6V26.2   c0-7.3-6.1-12.7-13.4-13.9C77.6,11.5,72.8,11.1,68.2,11.2L68.2,11.2z M53.7,19.4c2.8,0,5,2.3,5,5.1c0,2.8-2.3,5.1-5,5.1   c-2.8,0-5-2.3-5-5.1C48.7,21.7,50.9,19.4,53.7,19.4z"></path>
	
		<linearGradient id="SVGID_2_" gradientUnits="userSpaceOnUse" x1="560.2875" y1="-334.7706" x2="521.2875" y2="-279.6706" gradientTransform="matrix(0.5625 0 0 -0.568 -219.5323 -90.2734)">
		<stop offset="0" style="stop-color:#FFD43B"></stop>
		<stop offset="1" style="stop-color:#FFE873"></stop>
	</linearGradient>
	<path class="st1" d="M98.9,39.8v11.9c0,9.2-7.8,17-16.8,17H55.4C48.1,68.7,42,75,42,82.3v25.5c0,7.3,6.3,11.5,13.4,13.6   c8.5,2.5,16.6,2.9,26.8,0c6.8-2,13.4-5.9,13.4-13.6V97.6H68.8v-3.4h26.8H109c7.8,0,10.7-5.4,13.4-13.6c2.8-8.4,2.7-16.5,0-27.3   c-1.9-7.8-5.6-13.6-13.4-13.6L98.9,39.8L98.9,39.8z M83.9,104.5c2.8,0,5,2.3,5,5.1c0,2.8-2.3,5.1-5,5.1c-2.8,0-5-2.3-5-5.1   C78.8,106.7,81.1,104.5,83.9,104.5z"></path>
</g>
</svg>
